<svg width="1440" height="566" viewBox="0 0 1440 566" fill="none" xmlns="http://www.w3.org/2000/svg">
<g opacity="0.2">
<path d="M-553.911 236.433C-553.911 236.433 -396.994 388.024 -157.254 260.945C82.4853 133.867 252.476 -8.82849 468.223 191.821C683.971 392.471 897.564 287.699 1067.55 111.561C1237.55 -64.5757 1420.54 93.737 1420.54 93.737" stroke="#6E7B8E" stroke-width="0.75" stroke-linecap="round" stroke-linejoin="round"/>
<path d="M-554.642 253.153C-554.24 253.153 -386.66 394.244 -152.945 264.323C80.7689 134.402 253.535 -2.1738 467.42 199.413C681.305 400.999 894.131 299.972 1060.54 125.64C1226.95 -48.6911 1417.5 110.458 1417.5 110.458" stroke="#727F92" stroke-width="0.76" stroke-linecap="round" stroke-linejoin="round"/>
<path d="M-555.372 269.874C-554.605 269.874 -376.216 400.464 -148.381 267.7C79.4542 134.937 254.557 4.44774 466.616 207.004C678.676 409.56 890.698 312.211 1053.53 139.719C1216.36 -32.7728 1414.44 127.179 1414.44 127.179" stroke="#778496" stroke-width="0.78" stroke-linecap="round" stroke-linejoin="round"/>
<path d="M-556.103 286.595C-554.97 286.595 -365.845 406.684 -143.926 271.045C77.9935 135.405 255.616 11.1026 465.923 214.595C676.229 418.088 887.375 324.484 1046.52 153.932C1205.66 -16.6205 1411.37 143.899 1411.37 143.899" stroke="#7B889B" stroke-width="0.79" stroke-linecap="round" stroke-linejoin="round"/>
<path d="M-556.833 303.316C-555.299 303.316 -355.473 412.871 -139.507 274.422C76.4597 135.974 256.675 17.724 465.046 222.186C673.417 426.649 883.724 336.724 1039.55 167.844C1195.37 -1.03675 1408.38 160.587 1408.38 160.587" stroke="#808D9F" stroke-width="0.81" stroke-linecap="round" stroke-linejoin="round"/>
<path d="M-557.6 320.037C-555.664 320.037 -345.102 419.091 -135.052 277.8C74.999 136.509 257.734 24.379 464.243 229.744C670.751 435.109 880.546 348.997 1032.53 181.923C1184.52 14.8481 1405.02 177.308 1405.02 177.308" stroke="#8491A3" stroke-width="0.82" stroke-linecap="round" stroke-linejoin="round"/>
<path d="M-558.33 336.757C-556.03 336.757 -334.731 425.311 -130.597 281.177C73.5383 137.044 258.793 31.0003 463.439 237.335C668.086 443.67 877.041 361.27 1025.52 195.968C1174 30.6659 1402.28 194.062 1402.28 194.062" stroke="#8895A7" stroke-width="0.84" stroke-linecap="round" stroke-linejoin="round"/>
<path d="M-559.061 353.478C-556.358 353.478 -324.36 431.531 -126.178 284.522C72.0045 137.512 259.852 37.6553 462.673 244.927C665.493 452.198 873.608 373.51 1018.51 210.047C1163.41 46.5842 1399.03 210.716 1399.03 210.716" stroke="#8D9AAC" stroke-width="0.85" stroke-linecap="round" stroke-linejoin="round"/>
<path d="M-559.791 370.199C-556.723 370.199 -313.989 437.751 -121.577 287.899C70.836 138.047 261.058 44.2766 462.015 252.518C662.973 460.759 870.176 385.749 1011.54 224.159C1152.9 62.5692 1395.96 227.503 1395.96 227.503" stroke="#919EB0" stroke-width="0.87" stroke-linecap="round" stroke-linejoin="round"/>
<path d="M-560.521 386.92C-557.089 386.92 -303.582 443.971 -117.267 291.277C69.0467 138.582 261.971 50.9315 461.066 260.109C660.161 469.287 866.743 398.056 1004.52 238.171C1142.31 78.2868 1392.89 244.224 1392.89 244.224" stroke="#96A3B4" stroke-width="0.88" stroke-linecap="round" stroke-linejoin="round"/>
<path d="M-561.288 403.641C-557.417 403.808 -293.211 450.191 -112.849 294.654C67.5128 139.117 262.92 57.553 460.116 267.633C657.313 477.714 863.2 410.229 997.367 252.217C1131.53 94.2051 1389.79 260.945 1389.79 260.945" stroke="#9AA7B8" stroke-width="0.9" stroke-linecap="round" stroke-linejoin="round"/>
<path d="M-562.018 420.362C-557.782 420.529 -282.839 456.412 -108.394 297.999C66.0522 139.586 264.088 64.2081 459.495 275.258C654.903 486.309 859.914 422.402 990.502 266.296C1121.09 110.19 1386.72 277.666 1386.72 277.666" stroke="#9FACBD" stroke-width="0.91" stroke-linecap="round" stroke-linejoin="round"/>
<path d="M-562.749 437.082C-558.148 437.283 -272.468 462.598 -103.975 301.376C64.5185 140.154 265.148 70.8294 458.692 282.849C652.237 494.87 856.481 434.775 983.527 280.375C1110.57 125.975 1383.65 294.387 1383.65 294.387" stroke="#A3B0C1" stroke-width="0.93" stroke-linecap="round" stroke-linejoin="round"/>
<path d="M-563.479 453.803C-558.476 454.004 -262.097 468.819 -99.5198 304.754C63.0577 140.689 266.207 77.3506 457.889 290.441C649.571 503.531 853.085 447.048 976.442 294.454C1099.8 141.859 1380.55 311.108 1380.55 311.108" stroke="#A7B4C5" stroke-width="0.94" stroke-linecap="round" stroke-linejoin="round"/>
<path d="M-564.21 470.524C-558.732 470.758 -251.726 474.972 -94.9552 308.131C61.8159 141.291 267.338 84.0722 457.195 298.099C647.051 512.125 849.762 459.354 969.613 308.566C1089.46 157.778 1377.48 327.828 1377.48 327.828" stroke="#ACB9C9" stroke-width="0.96" stroke-linecap="round" stroke-linejoin="round"/>
<path d="M-564.976 487.245C-559.207 487.479 -241.319 481.259 -90.646 311.476C60.0267 141.692 268.288 90.7607 456.318 305.59C644.349 520.419 846.22 471.628 962.492 322.578C1078.77 173.529 1374.41 344.549 1374.41 344.549" stroke="#B0BDCE" stroke-width="0.97" stroke-linecap="round" stroke-linejoin="round"/>
<path d="M-565.707 503.999C-559.535 504.233 -230.948 487.479 -86.1909 314.853C58.5659 142.227 269.347 97.4823 455.515 313.181C641.683 528.88 842.823 483.733 955.517 336.59C1068.21 189.447 1371.31 361.27 1371.31 361.27" stroke="#B5C2D2" stroke-width="0.99" stroke-linecap="round" stroke-linejoin="round"/>
<path d="M-566.437 520.72C-559.9 520.954 -220.577 493.699 -81.7356 318.231C57.1052 142.762 270.406 104.004 454.712 320.772C639.017 537.541 839.391 496.073 948.506 350.87C1057.62 205.666 1368.24 377.991 1368.24 377.991" stroke="#B9C6D6" stroke-linecap="round" stroke-linejoin="round"/>
<path d="M-568.482 517.878C-561.945 517.878 -224.265 491.793 -85.643 312.379C52.9788 132.964 278.513 88.7543 447.518 314.887C595.233 513.095 764.493 507.544 881.35 408.089C904.494 388.285 925.224 366.241 943.175 342.342C1000.47 266.63 1101.7 268.771 1192.66 296.293C1290.75 325.956 1372.26 375.784 1372.26 375.784" stroke="#BDC9D8" stroke-width="1.06" stroke-linecap="round" stroke-linejoin="round"/>
<path d="M-570.527 515.102C-564.027 515.102 -227.953 489.954 -89.5504 306.526C48.8523 123.099 285.999 74.4745 439.959 309.034C581.611 524.9 754.925 512.46 874.777 402.872C898.016 381.621 919.135 358.51 937.88 333.814C999.595 252.819 1101.95 253.019 1194.71 284.99C1258.89 307.729 1319.85 337.461 1376.28 373.543" stroke="#C1CDDB" stroke-width="1.12" stroke-linecap="round" stroke-linejoin="round"/>
<path d="M-572.609 512.226C-566.072 512.226 -231.605 488.014 -93.4578 300.641C44.6893 113.267 292.828 60.8639 432.399 303.149C567.515 537.24 745.211 517.376 867.984 397.688C891.333 375.028 912.851 350.842 932.365 325.321C998.536 239.008 1101.99 237.336 1196.54 273.687C1261.91 299.277 1323.64 332.056 1380.37 371.303" stroke="#C5D0DD" stroke-width="1.18" stroke-linecap="round" stroke-linejoin="round"/>
<path d="M-574.654 509.417C-568.117 509.082 -235.293 486.008 -97.3289 294.788C40.6356 103.569 298.963 47.8885 425.205 297.263C553.237 550.182 735.862 522.359 861.593 392.538C885.068 368.485 907.015 343.217 927.326 316.86C997.915 225.23 1102.61 221.685 1198.8 262.417C1265.21 290.879 1327.53 326.743 1384.35 369.196" stroke="#C9D3E0" stroke-width="1.24" stroke-linecap="round" stroke-linejoin="round"/>
<path d="M-576.699 506.608C-570.162 506.106 -238.981 484.235 -101.236 288.936C36.5093 93.6367 304.441 35.3145 417.829 291.377C538.338 563.459 726.405 527.342 855.021 387.388C878.83 361.471 901.398 335.119 921.921 308.399C996.965 211.418 1102.61 206.101 1200.74 251.147C1268.32 282.426 1331.33 321.368 1388.29 367.056" stroke="#CED7E2" stroke-width="1.29" stroke-linecap="round" stroke-linejoin="round"/>
<path d="M-578.744 503.765C-572.207 503.163 -242.779 482.362 -105.144 283.05C32.4922 83.7379 309.298 23.1082 410.452 285.491C522.817 577.069 716.946 532.391 848.447 382.238C872.768 354.582 895.555 327.227 916.59 299.938C996.052 197.707 1102.83 190.517 1202.74 239.91C1271.49 273.961 1335.18 315.962 1392.23 364.882" stroke="#D2DAE4" stroke-width="1.35" stroke-linecap="round" stroke-linejoin="round"/>
<path d="M-580.643 500.956C-574.106 500.187 -246.175 480.49 -108.868 277.198C28.4388 73.9061 313.789 11.0693 403.222 279.606C506.932 590.881 707.744 537.474 842.02 377.088C866.487 347.894 889.895 319.334 911.404 291.478C995.395 183.929 1103.12 175 1204.9 228.641C1274.86 265.477 1339.24 310.563 1396.4 362.742" stroke="#D6DDE7" stroke-width="1.41" stroke-linecap="round" stroke-linejoin="round"/>
<path d="M-582.87 498.147C-576.334 497.211 -250.01 478.584 -112.958 271.346C24.0931 64.1077 317.405 -0.835921 395.662 273.72C490.061 604.792 698.176 542.558 835.264 371.938C860.06 341.205 883.724 311.442 905.999 283.017C994.336 170.151 1103.2 159.45 1206.8 217.371C1326.28 284.254 1400.34 360.601 1400.34 360.601" stroke="#DAE1E9" stroke-width="1.47" stroke-linecap="round" stroke-linejoin="round"/>
<path d="M-584.915 495.304C-578.378 494.234 -253.698 476.711 -116.829 265.493C20.0397 54.2759 320.764 -12.7077 388.286 267.868C472.788 619.005 688.828 547.641 828.691 366.788C853.816 334.316 878.027 303.583 900.668 274.556C993.496 156.407 1103.34 143.933 1208.81 206.134C1331.32 278.335 1404.32 358.428 1404.32 358.428" stroke="#DEE4EC" stroke-width="1.53" stroke-linecap="round" stroke-linejoin="round"/>
<path d="M-586.96 492.495C-580.424 491.291 -257.387 474.805 -120.737 259.608C15.9131 44.4106 323.759 -24.6464 380.909 261.982C454.894 632.95 679.516 552.757 822.118 361.638C847.68 327.528 872.184 295.691 895.373 266.095C992.62 142.629 1103.52 128.449 1210.85 194.865C1336.33 272.483 1408.3 356.287 1408.3 356.287" stroke="#E2E8EE" stroke-width="1.59" stroke-linecap="round" stroke-linejoin="round"/>
<path d="M-589.005 489.686C-582.468 488.315 -261.075 472.965 -124.644 253.755C11.7867 34.5452 326.388 -36.4849 373.532 256.096C436.489 646.996 670.204 557.874 815.399 356.421C841.217 320.672 866.232 287.732 889.932 257.568C991.634 128.784 1103.52 112.899 1212.75 183.528C1341.22 266.597 1412.21 354.08 1412.21 354.08" stroke="#E6EBF1" stroke-width="1.65" stroke-linecap="round" stroke-linejoin="round"/>
<path d="M-591.087 486.844C-584.55 485.339 -264.763 471.026 -128.551 247.903C7.66011 24.7804 328.762 -48.4903 366.156 250.211C417.573 660.974 660.965 562.99 808.935 351.238C835.082 313.85 860.498 279.806 884.746 249.074C990.867 115.006 1103.85 97.3822 1214.87 172.158C1346.33 260.711 1416.34 351.806 1416.34 351.806" stroke="#EAEEF3" stroke-width="1.71" stroke-linecap="round" stroke-linejoin="round"/>
<path d="M-593.132 484.034C-586.595 482.396 -268.415 469.153 -132.422 242.017C3.57001 14.8814 330.88 -60.5964 358.779 244.325C398.145 674.852 651.652 568.107 802.362 346.188C828.874 307.195 854.558 272.092 879.414 240.88C989.99 101.495 1103.89 82.1661 1216.88 161.256C1351.26 255.227 1420.32 350 1420.32 350" stroke="#EFF2F5" stroke-width="1.76" stroke-linecap="round" stroke-linejoin="round"/>
<path d="M-595.25 481.192C-588.713 479.42 -272.176 467.247 -136.403 236.165C-0.629459 5.08306 332.706 -72.8025 351.33 238.439C378.316 688.631 642.706 573.491 795.752 341.205C822.702 300.607 848.825 264.334 874.119 232.386C989.114 87.7174 1104 66.716 1218.92 149.986C1356.19 249.274 1424.19 347.659 1424.19 347.659" stroke="#F3F5F8" stroke-width="1.82" stroke-linecap="round" stroke-linejoin="round"/>
<path d="M-597.222 478.316C-590.685 476.376 -275.865 465.307 -140.237 230.246C-4.60984 -4.8156 334.495 -85.1759 344.026 232.52C358.049 702.375 633.503 578.641 789.179 335.888C816.446 293.529 842.982 256.152 868.788 223.758C988.238 73.6719 1103.93 51.266 1220.93 138.549C1360.94 243.723 1428.35 345.519 1428.35 345.519" stroke="#F7F8FA" stroke-width="1.88" stroke-linecap="round" stroke-linejoin="round"/>
<path d="M-599.267 475.574C-592.73 473.467 -279.48 463.468 -144.145 224.46C-8.80951 -14.5472 336.102 -97.5829 336.613 226.701C337.416 715.785 624.118 583.624 782.605 330.738C807.293 290.96 834.294 252.424 863.493 215.297C987.361 60.0277 1104.07 35.7156 1222.94 127.279C1365.94 237.837 1432.37 343.345 1432.37 343.345" stroke="#FBFCFD" stroke-width="1.94" stroke-linecap="round" stroke-linejoin="round"/>
<path d="M-601.348 472.731C-594.812 470.524 -283.168 461.595 -148.016 218.575C-12.8631 -24.4458 337.672 -110.157 329.236 220.815C316.491 729.128 614.733 588.674 776.032 325.588C937.331 62.5025 1078.95 0.100399 1224.95 116.043C1370.94 231.985 1436.35 341.205 1436.35 341.205" stroke="white" stroke-width="2" stroke-linecap="round" stroke-linejoin="round"/>
</g>
</svg>
